# xmcd
#
# Track frame offsets: 
#        150
#        12631
#        27435
#        41522
#        56534
#        70391
#        83272
#        96384
#        111515
#        124200
#        138826
#        153864
#        166052
#        179869
#        194259
#        207649
#        221656
#        236026
#        250929
#        264090
#        279550
#        294225
#        309023
#
# Disc length: 4300 seconds
#
# Revision: 0
# Processed by: cddbd v1.5.2PL0 Copyright (c) Steve Scherf et al.
# Submitted via: ExactAudioCopy v0.99pb5
#
DISCID=4e10ca17
DTITLE=Various Artist - The Return Of The Stuff That Dreams Are Made Of CD1
DYEAR=2012
DGENRE=Blues
TTITLE0=Mississippi Possum Hunters - The Last Shot Got Him
TTITLE1=George Edgin's Corn Dodgers - My Ozark Mountain Home
TTITLE2=Henry Thomas - Charmin Betsey
TTITLE3=Charlie Poole and The North Carolina Ramblers - Milwaukee Blues
TTITLE4=Eck Robertson and Family - Texas Wagoner
TTITLE5=Joe Evans and Arthur McClain - Two White Horses
TTITLE6=Leo Soileau and Mayuse Lafleur - Basile Waltz
TTITLE7=Lottie Kimbrough - Rolling Log Blues
TTITLE8=Luke Hignight and His Ozark Strutters - Fort Smith Breakdown
TTITLE9=Carver Boys - Tim Brook
TTITLE10=Blind Willie Johnson - Jesus Make Up My Dying Bed
TTITLE11=Furry Lewis - Billy Lyons and Stack O'Lee
TTITLE12=J. P. Nester and Norman Edmonds - Train On The Island
TTITLE13=Tommy Johnson - Lonesome Home Blues
TTITLE14=Orkiestra Majkuta - Wsciekla Polka
TTITLE15=Lulu Jackson - Little Rosewood Casket
TTITLE16=E. Mullaney and P. Stack - Maid In A Cherry Tree
TTITLE17=Elder Golden P. Harris - I'll Lead A Christian Life
TTITLE18=Fiddling Sam Long - Seneca Square Dance
TTITLE19=Blind Blake - Sun To Sun Blues
TTITLE20=Blue Ridge Mountain Singers - The Letter That Never Came
TTITLE21=Charley Patton - Some These Days I'll Be Gone
TTITLE22=Allison's Sacred Harp Singers - I'm A Long Time Traveling Awa
TTITLE22=y From Home
EXTD=
EXTT0=
EXTT1=
EXTT2=
EXTT3=
EXTT4=
EXTT5=
EXTT6=
EXTT7=
EXTT8=
EXTT9=
EXTT10=
EXTT11=
EXTT12=
EXTT13=
EXTT14=
EXTT15=
EXTT16=
EXTT17=
EXTT18=
EXTT19=
EXTT20=
EXTT21=
EXTT22=
PLAYORDER=
